<svg width="343" height="237" viewBox="0 0 343 237" fill="none" xmlns="http://www.w3.org/2000/svg">
<rect x="146" width="50" height="174" rx="25" fill="#FF6C6C"/>
<rect x="258" y="62" width="50" height="174" rx="25" transform="rotate(90 258 62)" fill="#FF6C6C"/>
<path d="M18.8 228.48C14.64 228.48 11.0667 227.067 8.08 224.24C5.09333 221.387 3.6 217.88 3.6 213.72C3.6 209.533 4.90667 206.027 7.52 203.2C10.1333 200.347 13.48 198.92 17.56 198.92C20.76 198.92 24 199.453 27.28 200.52L26.76 202.12C23.56 201.16 20.4933 200.68 17.56 200.68C14.0667 200.68 11.2133 201.933 9 204.44C6.78667 206.947 5.68 210.013 5.68 213.64C5.68 217.267 6.96 220.36 9.52 222.92C12.1067 225.453 15.2 226.72 18.8 226.72C21.9467 226.72 24.6667 226.24 26.96 225.28L27.56 226.64C26.5467 227.227 25.2133 227.68 23.56 228C21.9333 228.32 20.3467 228.48 18.8 228.48ZM35.0847 228V199.4H37.0047V226.24H50.1647V228H35.0847ZM56.3347 228V199.4H58.2547V228H56.3347ZM70.6356 203.96L70.7156 207.36V228H68.7956V199.16H69.6756L88.5156 220.88C89.7956 222.4 90.7823 223.613 91.4756 224.52C91.369 223.24 91.3156 221.773 91.3156 220.12V199.4H93.2356V228.24H92.3556L73.1556 206.12C71.8223 204.6 70.969 203.587 70.5956 203.08L70.6356 203.96ZM103.796 228V199.4H105.716V228H103.796ZM129.777 228.48C125.617 228.48 122.043 227.067 119.057 224.24C116.07 221.387 114.577 217.88 114.577 213.72C114.577 209.533 115.883 206.027 118.497 203.2C121.11 200.347 124.457 198.92 128.537 198.92C131.737 198.92 134.977 199.453 138.257 200.52L137.737 202.12C134.537 201.16 131.47 200.68 128.537 200.68C125.043 200.68 122.19 201.933 119.977 204.44C117.763 206.947 116.657 210.013 116.657 213.64C116.657 217.267 117.937 220.36 120.497 222.92C123.083 225.453 126.177 226.72 129.777 226.72C132.923 226.72 135.643 226.24 137.937 225.28L138.537 226.64C137.523 227.227 136.19 227.68 134.537 228C132.91 228.32 131.323 228.48 129.777 228.48ZM147.581 218.08L143.461 228H141.421L153.461 199.2H154.581L166.661 228H164.501L160.381 218.08H147.581ZM153.901 202.4C153.875 202.427 153.821 202.587 153.741 202.88C153.368 204.027 153.008 205 152.661 205.8L148.261 216.44H159.701L155.301 205.84C154.368 203.813 153.901 202.667 153.901 202.4ZM200.519 226.52H199.439L191.079 206.28C190.599 205.16 190.212 204.173 189.919 203.32L189.519 206.36L186.239 228H184.279L188.999 199.16H190.119L199.039 220.36C199.492 221.347 199.852 222.28 200.119 223.16C200.199 222.867 200.612 221.947 201.359 220.4L211.319 199.16H212.399L216.759 228H214.759L211.639 206.28C211.425 204.92 211.319 203.893 211.319 203.2C211.292 203.227 211.225 203.36 211.119 203.6C211.039 203.813 210.879 204.187 210.639 204.72C210.425 205.227 210.199 205.76 209.959 206.32L200.519 226.52ZM224.616 228V199.4H237.896V201.08H226.536V211.6H236.816V213.24H226.536V226.32H238.336V228H224.616ZM235.416 195.6L229.576 197.72L228.216 197.32L235.176 193.48L235.416 195.6ZM255.182 226.6C258.942 226.6 261.956 225.587 264.222 223.56C266.516 221.507 267.662 218.427 267.662 214.32C267.662 210.213 266.369 206.947 263.782 204.52C261.222 202.093 258.049 200.88 254.262 200.88C251.836 200.88 249.729 200.947 247.942 201.08V226.28C249.676 226.493 252.089 226.6 255.182 226.6ZM254.262 199.12C258.662 199.12 262.342 200.493 265.302 203.24C268.262 205.96 269.742 209.667 269.742 214.36C269.742 216.733 269.356 218.84 268.582 220.68C267.836 222.493 266.796 223.947 265.462 225.04C262.716 227.253 259.289 228.36 255.182 228.36C252.489 228.36 249.436 228.213 246.022 227.92V199.4C248.742 199.213 251.489 199.12 254.262 199.12ZM278.639 228V199.4H280.559V228H278.639ZM304.62 228.48C300.46 228.48 296.887 227.067 293.9 224.24C290.914 221.387 289.42 217.88 289.42 213.72C289.42 209.533 290.727 206.027 293.34 203.2C295.954 200.347 299.3 198.92 303.38 198.92C306.58 198.92 309.82 199.453 313.1 200.52L312.58 202.12C309.38 201.16 306.314 200.68 303.38 200.68C299.887 200.68 297.034 201.933 294.82 204.44C292.607 206.947 291.5 210.013 291.5 213.64C291.5 217.267 292.78 220.36 295.34 222.92C297.927 225.453 301.02 226.72 304.62 226.72C307.767 226.72 310.487 226.24 312.78 225.28L313.38 226.64C312.367 227.227 311.034 227.68 309.38 228C307.754 228.32 306.167 228.48 304.62 228.48ZM322.425 218.08L318.305 228H316.265L328.305 199.2H329.425L341.505 228H339.345L335.225 218.08H322.425ZM328.745 202.4C328.718 202.427 328.665 202.587 328.585 202.88C328.212 204.027 327.852 205 327.505 205.8L323.105 216.44H334.545L330.145 205.84C329.212 203.813 328.745 202.667 328.745 202.4Z" fill="#FF0000"/>
</svg>
